<?xml version="1.0" standalone="no"?>
<!DOCTYPE svg PUBLIC "-//W3C//DTD SVG 20010904//EN"
 "http://www.w3.org/TR/2001/REC-SVG-20010904/DTD/svg10.dtd">
<svg version="1.0" xmlns="http://www.w3.org/2000/svg"
 width="1200.000000pt" height="1200.000000pt" viewBox="0 0 1200.000000 1200.000000"
 preserveAspectRatio="xMidYMid meet">
<metadata>
Created by potrace 1.11, written by Peter Selinger 2001-2013
</metadata>
<g transform="translate(0.000000,1200.000000) scale(0.100000,-0.100000)"
fill="#000000" stroke="none">
<path d="M5977 11920 c-9 -47 -48 -488 -97 -1100 -62 -776 -103 -1216 -146
-1585 -17 -141 -34 -198 -34 -114 -1 115 -48 369 -96 519 -56 176 -123 294
-255 450 -77 92 -119 167 -119 216 0 16 11 73 25 125 37 144 51 271 37 354
-19 115 -56 174 -200 321 -142 145 -189 218 -218 340 -18 73 -23 250 -11 339
10 68 -3 44 -46 -86 -55 -163 -70 -254 -65 -385 4 -105 7 -117 41 -186 20 -40
66 -109 102 -152 88 -106 99 -128 98 -201 0 -66 -15 -105 -87 -229 -130 -226
-150 -421 -60 -598 14 -27 69 -115 123 -197 134 -202 170 -282 192 -424 7 -41
9 -110 5 -160 -7 -100 -34 -233 -46 -220 -4 4 -315 587 -691 1295 -375 708
-684 1287 -685 1285 -1 -1 182 -625 407 -1386 225 -762 407 -1386 405 -1388
-2 -2 -23 31 -46 74 -64 117 -191 301 -273 395 -121 137 -251 233 -429 317
-164 76 -196 117 -222 281 -41 255 -126 404 -272 478 -33 16 -108 48 -168 71
-130 49 -184 79 -250 140 -83 78 -139 170 -192 316 l-33 90 -1 -57 c-1 -135
41 -331 96 -446 52 -107 120 -170 274 -252 101 -54 131 -74 155 -109 l30 -43
-3 -228 c-3 -253 5 -315 57 -418 44 -88 102 -145 230 -229 64 -41 153 -100
198 -130 203 -134 321 -324 367 -590 4 -25 1 -34 -17 -46 -22 -14 -63 18
-1127 885 -608 495 -1123 914 -1145 931 l-40 31 26 -30 c14 -16 437 -513 939
-1104 502 -591 920 -1083 928 -1093 8 -9 13 -20 10 -23 -3 -3 -46 27 -94 66
-234 189 -475 318 -679 365 -34 8 -132 21 -218 30 -86 8 -172 21 -190 28 -47
20 -89 66 -142 155 -98 164 -206 271 -315 314 -48 19 -83 22 -280 28 -249 7
-284 14 -396 81 -58 34 -192 159 -253 234 -27 35 -24 24 25 -75 93 -189 179
-304 281 -377 83 -59 152 -82 286 -94 62 -6 129 -15 150 -20 82 -22 135 -98
182 -264 61 -211 162 -359 292 -428 79 -41 140 -58 313 -87 232 -39 362 -88
482 -184 62 -49 154 -155 194 -223 21 -36 22 -46 12 -67 -6 -14 -17 -26 -23
-26 -7 0 -207 60 -446 134 -239 74 -735 227 -1104 341 -369 114 -793 244 -942
291 -150 46 -276 84 -280 84 -10 0 44 -29 1317 -695 1226 -641 1253 -655 1247
-661 -3 -3 -51 9 -108 26 -197 59 -330 81 -514 87 -198 6 -274 -5 -474 -68
-161 -52 -213 -51 -293 4 -29 20 -89 61 -133 92 -98 67 -215 115 -304 122 -84
7 -155 -11 -308 -77 -64 -28 -143 -57 -177 -65 -144 -34 -292 -9 -469 78
l-107 53 42 -44 c59 -60 210 -173 288 -215 160 -87 289 -97 475 -37 181 57
251 37 367 -108 113 -141 207 -226 304 -274 l87 -43 131 1 c113 0 151 5 271
33 309 74 510 47 731 -96 70 -46 74 -50 74 -85 0 -31 -4 -38 -19 -38 -19 0
-2398 -207 -2697 -235 -89 -8 -172 -15 -185 -16 -25 -1 2826 -277 2874 -278
33 -1 36 -19 5 -25 -13 -2 -77 -9 -143 -15 -224 -21 -476 -86 -619 -158 -69
-35 -175 -108 -271 -187 -142 -117 -176 -125 -365 -77 -208 52 -322 50 -445
-8 -49 -22 -95 -60 -198 -159 -207 -199 -308 -240 -571 -229 -77 3 -134 2
-126 -3 40 -22 202 -72 290 -90 164 -33 295 -23 403 31 23 12 80 52 127 89
135 107 176 121 267 95 32 -9 87 -34 123 -54 259 -152 416 -181 606 -110 29
11 121 65 205 121 161 105 252 156 332 182 122 41 285 44 440 10 79 -18 82
-19 91 -51 7 -21 -73 -62 -1301 -677 -719 -360 -1304 -655 -1300 -655 4 -1
616 175 1358 390 743 215 1353 389 1355 386 2 -2 -42 -31 -99 -65 -201 -120
-371 -263 -475 -401 -31 -42 -89 -137 -127 -211 -40 -77 -85 -150 -107 -172
-42 -42 -75 -53 -257 -87 -273 -51 -375 -137 -475 -398 -59 -154 -93 -213
-170 -288 -81 -80 -181 -137 -316 -180 -47 -15 -89 -28 -95 -30 -22 -7 55 -4
164 6 332 31 494 124 610 349 96 187 131 208 334 194 264 -18 389 -1 503 67
80 48 148 127 245 280 149 238 234 326 392 405 65 33 230 84 273 84 11 0 30
-11 43 -23 l22 -24 -931 -1127 c-512 -620 -925 -1124 -919 -1120 9 5 2138
1788 2212 1852 9 8 20 13 23 9 3 -3 -28 -47 -69 -99 -207 -257 -341 -519 -376
-733 -6 -38 -16 -123 -21 -188 -6 -65 -17 -135 -26 -155 -21 -50 -67 -97 -139
-139 -201 -118 -307 -232 -345 -373 -8 -28 -12 -107 -11 -205 0 -88 -3 -185
-8 -215 -26 -156 -115 -292 -291 -444 l-55 -47 105 52 c143 70 253 144 326
221 107 111 136 184 154 378 18 190 56 232 272 300 180 57 277 107 354 184 99
99 124 163 174 435 47 252 80 338 184 470 63 80 247 228 260 209 2 -2 -172
-608 -386 -1348 -213 -740 -397 -1376 -408 -1414 -58 -203 120 139 555 1063
360 768 551 1142 675 1326 51 75 125 149 140 140 5 -3 3 -26 -6 -53 -73 -234
-105 -424 -105 -622 0 -157 14 -238 70 -415 61 -190 56 -230 -49 -370 -135
-181 -187 -336 -160 -471 6 -33 36 -115 65 -184 72 -170 88 -229 88 -330 0
-108 -29 -219 -94 -348 l-48 -97 66 70 c80 85 153 187 198 276 79 156 87 268
31 449 -20 63 -36 134 -36 158 0 82 41 142 163 240 154 122 242 235 279 355
28 95 21 234 -22 412 -40 167 -51 362 -26 470 19 79 88 227 137 295 l33 45 7
-40 c3 -22 78 -673 165 -1448 88 -774 162 -1400 166 -1390 10 25 49 447 113
1222 60 718 91 1037 131 1341 14 107 28 216 31 243 7 58 23 62 23 6 0 -69 29
-247 61 -379 62 -249 131 -384 298 -584 121 -143 131 -184 84 -353 -22 -83
-26 -119 -27 -238 -1 -138 0 -141 31 -208 26 -54 60 -96 167 -207 109 -112
142 -154 170 -212 57 -117 69 -179 65 -354 -2 -84 -1 -147 3 -141 3 7 22 60
42 119 83 250 87 447 10 588 -14 25 -54 82 -90 125 -87 106 -108 152 -101 225
3 32 16 79 30 106 13 27 49 97 79 155 65 125 89 214 89 321 0 136 -26 196
-185 432 -146 216 -196 351 -196 526 0 70 26 240 38 252 4 4 319 -571 701
-1278 381 -706 695 -1284 697 -1284 2 0 -3 21 -11 48 -8 26 -185 615 -393
1309 -208 694 -376 1260 -372 1258 4 -3 26 -37 50 -76 101 -170 280 -373 405
-459 27 -18 112 -68 189 -110 196 -106 191 -98 244 -383 33 -175 100 -294 208
-368 24 -16 104 -54 179 -84 75 -31 160 -70 188 -88 119 -77 217 -220 278
-406 l28 -86 1 60 c1 146 -41 357 -92 464 -46 96 -138 184 -257 245 -51 27
-111 64 -132 83 -52 47 -74 119 -65 212 3 36 9 125 12 196 6 114 4 142 -15
214 -40 161 -107 238 -336 389 -88 58 -182 124 -209 146 -112 94 -198 238
-242 402 -49 183 -156 257 1111 -771 622 -505 1137 -923 1145 -929 25 -19
-285 360 -780 954 -403 484 -673 814 -874 1070 -208 265 -198 251 -156 217
409 -321 606 -410 987 -446 162 -15 200 -39 278 -171 58 -98 131 -195 183
-241 105 -93 203 -119 433 -118 174 1 245 -12 342 -63 75 -40 189 -138 251
-216 27 -34 51 -62 52 -62 13 0 -76 175 -134 265 -94 147 -188 234 -298 275
-31 11 -113 27 -182 34 -143 16 -165 23 -211 61 -43 37 -72 98 -110 230 -45
156 -101 265 -177 342 -90 92 -163 123 -411 173 -284 57 -368 90 -494 194 -83
69 -222 247 -205 263 3 3 632 -183 1398 -412 766 -230 1400 -420 1408 -422 29
-9 -378 211 -1055 570 -885 468 -1513 812 -1503 822 2 2 48 -10 103 -26 196
-58 326 -80 515 -86 200 -6 273 4 455 62 123 40 186 51 239 41 19 -4 75 -35
126 -72 212 -153 352 -201 496 -170 38 8 123 37 188 66 150 65 194 79 281 86
120 10 289 -36 435 -118 48 -27 52 -28 35 -8 -31 35 -163 142 -233 189 -135
91 -284 139 -392 126 -30 -3 -108 -22 -173 -42 -188 -56 -245 -37 -374 122
-108 134 -192 208 -291 258 l-85 42 -131 0 c-114 0 -152 -5 -298 -38 -201 -45
-326 -50 -454 -17 -90 23 -213 82 -292 139 l-54 39 49 6 c57 8 1781 196 2408
263 242 25 443 49 447 52 7 6 -264 31 -2030 191 -422 39 -787 73 -812 76 -38
6 -22 10 105 24 189 22 291 43 430 87 185 60 297 123 470 267 138 115 179 124
339 81 138 -37 243 -48 332 -36 120 17 169 47 324 196 205 196 298 238 530
239 69 0 143 -3 165 -7 115 -22 -143 70 -275 99 -113 24 -260 22 -338 -5 -76
-26 -112 -48 -211 -130 -94 -76 -128 -92 -197 -92 -58 0 -94 14 -274 110 -132
71 -189 86 -325 86 -108 0 -126 -3 -184 -27 -35 -15 -136 -76 -225 -135 -255
-169 -353 -205 -551 -205 -100 0 -247 23 -267 41 -4 3 575 314 1287 691 712
376 1293 685 1291 687 -7 7 -400 -108 -1132 -332 -616 -189 -985 -297 -1259
-369 -225 -59 -415 -106 -415 -101 0 2 35 22 78 46 273 149 477 312 602 481
32 42 83 127 115 190 107 209 130 228 307 258 186 31 273 62 364 130 68 51
115 125 170 267 62 162 98 226 165 293 75 76 176 135 313 182 107 36 109 38
63 38 -84 0 -237 -21 -333 -45 -189 -48 -304 -137 -384 -295 -61 -122 -88
-158 -139 -188 -45 -26 -50 -27 -171 -23 -276 10 -351 7 -427 -17 -90 -28
-185 -92 -243 -164 -25 -31 -88 -123 -140 -205 -142 -223 -260 -329 -440 -396
-68 -26 -228 -62 -237 -54 -2 3 407 518 910 1145 503 628 918 1146 922 1152 5
9 -486 -401 -2205 -1839 -34 -29 -47 -36 -35 -20 223 292 289 394 358 554 55
127 85 254 97 413 18 233 31 256 205 367 162 104 245 189 288 298 18 45 22 82
27 282 6 216 8 234 33 297 14 37 42 93 62 124 37 58 145 172 220 233 37 30 31
28 -65 -19 -220 -109 -371 -236 -430 -362 -29 -62 -33 -84 -59 -300 -16 -135
-67 -184 -246 -240 -257 -78 -381 -163 -455 -309 -38 -74 -55 -136 -85 -316
-27 -165 -54 -261 -92 -338 -39 -78 -106 -167 -170 -225 -68 -62 -187 -144
-191 -131 -2 6 749 2658 805 2840 9 29 -47 -62 -112 -184 -63 -118 -265 -540
-525 -1095 -197 -419 -510 -1040 -585 -1160 -67 -107 -125 -175 -142 -169 -6
2 3 48 19 104 72 249 105 500 88 672 -12 125 -21 168 -70 320 -64 196 -61 216
73 412 38 55 83 133 100 173 29 67 32 82 32 183 l0 110 -49 110 c-88 199 -98
231 -103 340 -7 131 17 230 91 380 l55 110 -50 -55 c-140 -156 -250 -334 -278
-452 -18 -79 -13 -168 15 -264 51 -170 55 -189 49 -230 -9 -64 -58 -127 -165
-214 -127 -103 -191 -177 -240 -275 -69 -138 -70 -239 -9 -495 41 -174 50
-349 24 -466 -18 -79 -103 -262 -149 -318 l-24 -29 -6 44 c-4 24 -78 670 -166
1434 -88 765 -161 1399 -163 1410 -2 13 -6 8 -10 -15z m463 -3008 c637 -105
1174 -377 1621 -822 86 -85 193 -201 238 -258 618 -784 800 -1808 490 -2752
-188 -569 -543 -1062 -1029 -1429 -877 -661 -2051 -775 -3045 -296 -789 381
-1381 1116 -1581 1963 -189 798 -40 1633 411 2307 128 192 206 287 369 451
478 478 1063 765 1736 849 174 21 624 14 790 -13z"/>
<path d="M5552 8442 c2 -5 78 -75 171 -156 l167 -148 0 -174 0 -174 -293 0
-292 0 -150 167 -150 168 -3 -228 c-1 -126 -1 -327 0 -448 l3 -220 153 176
153 175 290 0 289 0 0 -860 0 -860 -170 0 -170 0 0 384 0 384 27 33 c39 46 96
69 176 69 l67 0 0 45 0 45 -430 0 -430 0 0 -45 0 -45 70 0 c81 0 132 -21 174
-70 l26 -32 0 -835 c0 -832 0 -836 -21 -870 -32 -51 -84 -73 -174 -73 l-75 0
0 -45 0 -45 430 0 430 0 0 45 0 45 -67 0 c-77 0 -133 22 -173 64 l-25 28 -3
399 -3 399 169 0 170 0 5 -27 c2 -16 24 -158 48 -317 28 -188 46 -280 50 -265
4 13 31 156 60 317 l53 292 188 0 188 0 0 -392 c0 -368 -1 -395 -19 -424 -30
-50 -93 -74 -189 -74 l-82 0 0 -40 0 -40 430 0 430 0 0 40 0 40 -82 0 c-100 0
-156 23 -190 78 l-23 37 4 815 c2 641 6 820 16 840 34 65 119 109 213 110 l62
0 0 47 0 46 -217 -6 c-120 -4 -314 -7 -430 -7 l-213 0 0 -40 0 -40 63 0 c79 0
129 -23 184 -82 31 -34 43 -57 48 -89 3 -24 5 -190 3 -369 l-3 -325 -192 -3
-193 -2 0 860 0 860 298 0 297 0 148 -191 147 -192 0 467 c0 256 -2 466 -3
466 -2 0 -66 -79 -141 -175 l-138 -175 -304 0 -304 0 0 174 0 175 173 152 c94
84 174 156 175 161 2 4 -200 8 -448 8 -248 0 -450 -4 -448 -8z"/>
<path d="M8316 6818 c-8 -48 -44 -118 -62 -118 -6 0 -45 15 -85 33 -277 126
-535 140 -730 41 -30 -14 -82 -55 -117 -90 -207 -207 -181 -540 62 -786 89
-90 207 -167 368 -239 259 -116 396 -221 466 -354 36 -68 37 -169 3 -234 -116
-221 -482 -289 -719 -134 -126 84 -219 255 -238 437 l-7 66 -38 0 -39 0 0
-360 0 -360 44 0 c43 0 43 0 49 40 3 22 15 55 26 74 l22 34 81 -29 c287 -105
584 -117 790 -34 75 31 173 101 216 154 18 23 48 72 65 109 30 63 32 73 32
182 0 94 -4 126 -23 174 -35 95 -81 164 -172 259 -101 106 -220 188 -408 280
-157 78 -256 144 -340 229 -85 85 -122 160 -122 246 0 83 25 136 91 196 79 71
140 91 284 91 118 0 121 -1 196 -37 97 -48 183 -137 233 -240 40 -85 54 -134
70 -243 l12 -80 40 0 39 0 3 368 2 367 -44 0 c-43 0 -43 0 -50 -42z"/>
<path d="M3730 6775 l0 -45 68 0 c82 0 144 -28 180 -80 l22 -33 0 -827 0 -827
-22 -33 c-42 -61 -71 -75 -164 -79 l-84 -3 0 -44 0 -44 430 0 430 0 0 44 0 44
-83 3 c-69 3 -90 8 -119 29 -73 49 -68 -15 -68 917 0 948 -8 866 84 909 38 18
69 24 119 24 l67 0 0 45 0 45 -430 0 -430 0 0 -45z"/>
<path d="M5855 4426 c-5 -3 -31 -7 -57 -11 -44 -6 -48 -8 -54 -41 -3 -19 -3
-50 0 -69 6 -29 14 -39 50 -56 23 -11 57 -34 75 -53 l31 -32 44 -305 c23 -167
45 -297 49 -289 3 8 24 145 47 304 22 159 47 301 55 315 17 33 51 64 90 82 28
14 30 17 30 73 0 58 -1 60 -30 68 -31 9 -313 21 -330 14z"/>
<path d="M5010 3994 c-55 -75 -159 -274 -163 -313 -1 -18 7 -31 32 -48 56 -38
75 -39 127 -4 26 17 63 34 82 37 40 8 18 15 371 -124 140 -56 250 -97 245 -92
-5 4 -117 92 -249 194 -268 208 -290 233 -282 318 3 42 1 49 -24 67 -16 12
-42 24 -58 27 -27 6 -34 1 -81 -62z"/>
<path d="M6876 4045 c-64 -22 -80 -46 -77 -108 5 -103 -3 -112 -274 -317 -134
-101 -243 -185 -242 -187 2 -1 131 47 287 107 321 124 355 130 423 84 44 -29
76 -27 121 10 l29 23 -32 82 c-38 92 -116 228 -164 283 l-32 37 -39 -14z"/>
</g>
</svg>
